<?xml version="1.0" encoding="utf-8"?>
<!-- Designed by Vexels.com - 2020 All Rights Reserved - https://vexels.com/terms-and-conditions/  -->
<svg version="1.1" id="Layer_1" xmlns="http://www.w3.org/2000/svg" xmlns:xlink="http://www.w3.org/1999/xlink" x="0px" y="0px"
	 viewBox="0 0 1200 1200" enable-background="new 0 0 1200 1200" xml:space="preserve">
<g>
	<path fill="#03566D" d="M861.987,243.622c-0.016,15.976-0.254,37.548-3.546,46.146c-3.334,8.267-9.955,14.899-17.291,17.342
		c-5.845,1.941-11.803,1.232-17.254-2.066c-12.663-7.662-14.102-24.74-15.153-37.211l-0.078-0.932
		c-0.818-9.655-1.217-19.455-1.6-28.928c-0.181-4.4-0.357-8.806-0.575-13.211c-0.104-1.988-0.072-4.219-0.036-6.538
		c0.073-4.996,0.155-10.649-1.263-14.531c-1.299-3.557-2.904-4.39-5.565-5.777c-1.967-1.03-4.421-2.309-6.901-4.97
		c-5.306-5.689-5.487-7.496-5.462-15.096l0.005-2.34c-0.005-3.334-0.041-6.663-0.073-9.996c-0.041-4.152-0.083-8.304-0.072-12.456
		c0.005-2.293,0.311-5.156,0.668-8.469c0.906-8.454,2.273-21.23-2.728-24.533c-3.323-2.19-4.851-1.356-5.363-1.072
		c-5.814,3.204-8.428,21.411-7.77,54.124c0.047,2.257,0.078,3.96,0.057,4.892l-0.093,4.079l-3.691-1.745
		c-59.658-28.172-113.937-41.907-165.944-41.979c-0.135,0-0.269,0-0.404,0c-30.398,0-62.821,4.846-96.383,14.402
		c-17.187,4.897-33.505,13.91-49.284,22.628c-4.846,2.682-9.67,5.348-14.5,7.884c-87.577,46.058-156.362,119.502-193.692,206.794
		c-42.031,98.272-47.171,171.954-15.655,225.064c16.737-22.436,44.831-28.695,69.753-34.245
		c35.208-7.848,70.638-11.803,103.744-14.92c44.982-4.229,94.219-6.316,149.533-6.316c13.843,0,28.059,0.129,42.688,0.388
		c71.135,1.268,137.844,6.585,203.932,16.25c36.409,5.332,69.541,11.902,101.285,20.081c22.214,5.731,50.769,17.85,64.079,43.216
		c12.756-20.583,16.628-41.782,18.357-66.931l0.114-1.61c1.864-26.951,3.789-54.818-0.238-80.723
		C974.946,397.12,930.011,307.597,861.987,243.622z M580.144,384.178l-0.005,0.016c-6.58,33.002-27.391,63.007-55.672,80.262
		c-15.888,9.691-32.79,14.599-49.863,14.599c-8.418,0-16.871-1.191-25.268-3.593c-53.451-15.282-75.805-73.315-66.533-120.59
		c10.095-51.463,52.353-90.885,100.477-93.732c28.038-1.682,53.886,9.163,72.574,30.497
		C577.168,315.968,586.475,351.424,580.144,384.178z"/>
	<path fill="#03566D" d="M830.398,285.363c2.397,3.168,4.638,4.706,6.026,4.235c4.209-1.382,7.434-15.013,7.553-23.524
		c0.233-17.467-1.056-35.125-2.304-52.198c-1.087-14.827-2.205-30.16-2.34-45.406c-0.155-17.746,0.16-35.782,0.466-53.228
		c0.223-12.828,0.445-25.656,0.492-38.48c0.005-1.631,0.135-3.572,0.28-5.674c0.44-6.487,1.041-15.37-2.469-19.009
		c-2.2-2.283-5.104-2.273-7.17-1.879c-4.323,0.849-8.785,4.209-10.157,7.651c-2.666,6.673-1.677,17.493-0.808,27.039
		c0.388,4.235,0.756,8.236,0.782,11.643l0.393,43.615c0.192,24.823,1.512,49.838,2.79,74.029l0.513,9.81
		c0.243,4.607,0.047,10.25-0.166,16.224C823.73,256.01,823.042,275.677,830.398,285.363z M829.27,212.411l3.137-21.261l3.018,30.3
		l-4.913-3.919C828.959,216.293,829.068,213.793,829.27,212.411z"/>
	<path fill="#03566D" d="M535.111,295.447l-0.321-0.331c-6.978-8.78-18.015-14.231-31.905-15.769c-2.718-0.3-5.519-0.45-8.361-0.45
		c-20.438,0-43.408,7.548-58.369,19.61c-25.486,20.552-40.172,54.926-37.408,87.566c2.185,25.791,15.914,49.258,36.719,62.764
		c19.434,12.621,42.445,15.292,64.757,7.517v0.005c7.491-2.625,14.5-6.238,21.044-10.814c0.166-0.129,0.336-0.238,0.492-0.347
		l0.005,0.005l0.171-0.119c28.115-20.045,45.054-56.521,42.155-90.766C561.709,330.189,551.961,310.367,535.111,295.447z"/>
	<path fill="#03566D" d="M353.057,659.307l6.171-0.3c1.967-0.129,3.437-0.223,4.545-0.223l0.228-0.026l0.005,0.026
		c0.109,0,0.212,0.005,0.311,0.005c77.896-4.09,149.533-6.145,216.527-6.145c91.268,0,173.927,3.815,252.102,11.493
		c0.192-3.034,0.523-6.875,0.89-11.187c1.382-16.178,4.261-49.832-1.351-54.724c-3.308-2.889-17.917-3.603-26.645-4.033
		c-4.364-0.212-8.133-0.399-10.519-0.756c-5.953-0.88-11.891-1.884-17.829-2.883c-7.32-1.237-14.64-2.475-21.991-3.484
		c-56.428-7.755-115.589-8.526-167.787-9.21c-53.544-0.714-106.208,0.694-156.558,4.147c-12.466,0.854-25.853,1.879-39.308,3.562
		c-3.417,0.424-7.367,0.606-11.55,0.797c-8.604,0.393-18.357,0.839-24.362,3.644c-1.734,0.808-3.23,1.362-4.514,1.672
		c0.01,1.413-0.135,3.287-0.533,5.798c-0.678,4.214-0.466,9.267-0.259,14.159c0.098,2.418,0.197,4.778,0.192,6.984
		c-0.036,13.216-0.626,25.931-1.413,40.84C350.624,659.406,351.84,659.359,353.057,659.307z"/>
	<path fill="#03566D" d="M869.421,606.234c-6.047-1.222-11.814-2.381-17.12-3.629c-0.58,10.147-0.621,20.428-0.668,30.398
		c-0.026,6.59-0.057,13.18-0.228,19.786c-0.026,0.958-0.217,2.397-0.44,4.007c-0.29,2.071-0.89,6.388-0.419,7.455
		c0.802,1.574,1.123,1.983,1.248,2.081c0.067,0.01,0.569,0.067,0.973,0.114c1.035,0.119,2.594,0.295,4.856,0.922
		c5.374,1.486,11.332,2.159,17.094,2.816c3.955,0.445,8.045,0.911,11.948,1.636c14.806,2.733,54.414,2.071,63.913-11.648
		c3.277-4.737,2.671-10.68-1.843-18.171C933.609,619.187,898.018,612.006,869.421,606.234z"/>
	<path fill="#03566D" d="M292.798,652.836c2.045,0.642,4.587,1.61,7.408,2.692c10.98,4.198,27.562,10.535,31.522,3.044
		c2.392-4.525,1.833-15.21,1.424-23.016c-0.166-3.091-0.305-5.881-0.28-8.014c0.16-12.637,0.202-23.943,0.114-34.447l-0.43,0.062
		c-23.436,3.386-52.597,7.6-72.341,20.278c-4.582,2.946-10.954,7.413-13.341,12.15c-0.595,1.18-1.512,2.992-1.895,3.991
		c0.067,0.041,0.14,0.088,0.212,0.135c1.072,0.663,2.692,1.667,4.644,3.696c8.676,9.018,26.184,14.33,38.966,18.207L292.798,652.836
		z"/>
	<path fill="#03566D" d="M824.885,681.304c-3.738-0.197-7.273-0.383-10.524-0.611l-14.19-1.004
		c-38.728-2.739-78.776-5.57-118.011-6.248c-96.077-1.657-198.848-2.557-299.455,2.029c-6.015,0.005-15.023,0.59-23.736,1.154
		c-5.933,0.383-11.689,0.756-16.193,0.927c-3.034,0-23.384,2.464-32.65,4.167c-16.167,2.961-22.271,6.642-26.557,22.612
		c-5.829,21.722-11.286,66.854,1.817,77.839c3.427,2.873,5.425,2.982,7.361,3.085c4.328,0.233,6.714,1.61,9.401,9.158
		c1.62,4.556,2.469,9.934,3.22,14.676l0.212,1.325c1.02,4.442,1.512,9.173,1.424,13.889l-0.026,1.367l-4.804,3.287
		c-0.72,1.289-1.501,2.397-2.267,3.479c-1.077,1.512-2.009,2.816-2.64,4.55c-2.309,6.326-1.377,12.114,0.083,19.02
		c5.746,27.178,17.896,53.487,29.648,78.931c4.261,9.235,8.671,18.782,12.668,28.157c10.747,25.196,22.245,47.425,35.161,67.956
		c1.988,3.158,3.934,6.337,5.876,9.5c11.953,19.486,23.285,37.957,41.953,50.583c0.424-4.229,2.009-7.993,4.737-11.234
		c10.581-12.6,35.534-14.407,53.751-15.722c3.924-0.285,7.429-0.538,10.235-0.875c20.744-2.516,41.42-3.261,61.568-3.261
		c11.912,0,23.643,0.259,35.089,0.569c1.641,0.047,4.152,0.057,7.367,0.078c48.057,0.28,113.958,3.189,131.321,25.191
		c2.682,3.396,4.121,7.123,4.312,11.125c60.497-40.628,100.12-103.309,122.878-149.285c22.825-46.11,59.943-136.746,52.084-225.654
		C903.884,685.481,858.224,683.069,824.885,681.304z"/>
	<path fill="#03566D" d="M661.99,1083.131l-3.344-0.259c-33.722-2.687-64.814-4.173-95.062-4.535
		c-34.442-0.43-63.313,1.305-90.885,5.399c-1.708,0.259-3.769,0.487-6.016,0.735c-8.656,0.958-23.141,2.563-25.294,7.89
		c-1.082,2.671,1.351,6.45,3.588,9.153c5.249,6.352,9.443,6.616,17.793,7.139l4.204,0.305c7.429,0.699,10.136,0.678,11.125,0.606
		c0.264-0.735,1.025-3.184,1.553-4.861c1.206-3.857,2.454-7.848,4.214-9.82c13.817-15.494,43.905-14.505,65.85-13.807
		c4.224,0.145,8.071,0.326,11.596,0.264l3.727-0.036c2.573-0.031,5.855-0.073,9.65-0.073c24.243,0,69.396,1.688,83.751,18.217
		c3.163,3.639,4.747,7.796,4.726,12.393c0.849-0.005,1.859-0.01,3.065-0.016c11.374-0.036,41.575-0.135,46.633-8.438
		c0.59-0.963,1.185-2.604-0.393-5.679C704.125,1086.314,677.748,1084.321,661.99,1083.131z"/>
	<path fill="#03566D" d="M633.367,1106.069l-0.285-0.067v0.005c-1.108-0.233-2.159-0.461-3.049-0.704
		c-16.25-5.917-39.028-7.651-60.145-7.651c-22.084,0-42.352,1.895-51.437,2.889c-5.177,0.569-18.932,2.076-22.965,7.853
		c-1.108,1.594-1.382,3.448-0.828,5.674c0.916,3.691,8.93,8.863,13.713,11.948c1.957,1.263,3.686,2.387,4.887,3.303
		c19.294,14.676,35.953,20.682,57.442,20.682c0.093,0,0.181,0,0.274,0c17.389-0.041,35.43-5.073,52.167-14.547
		c9.323-5.275,19.931-13.315,21.717-20.055c0.466-1.76,0.274-3.323-0.585-4.768C642.396,1107.954,637.39,1106.908,633.367,1106.069z
		"/>
</g>
</svg>
